REM DIRINDEX 1\6,1\2\7,1\2\8,1\2\9,1\3\10,1\3\11,1\4\12,1\4\13,1\4\14,1\5\15,1\5\16,1\5\17
REM DIRNAME folder01,folder02,folder03,folder04,folder05,folder06,folder07,folder08,folder09,folder10,folder11,folder12,folder13,folder14,folder15,folder16,folder17
TITLE ""
FILE "3Q_t_0860-0875.mp3" MP3
  TRACK 01 AUDIO
    TITLE "10:cjc041_3331"
    INDEX 01 00:00:00
  TRACK 02 AUDIO
    TITLE "0:"
    INDEX 01 00:01:15
  TRACK 03 AUDIO
    TITLE "11:cjc041_3332"
    INDEX 01 00:01:71
  TRACK 04 AUDIO
    TITLE "0:"
    INDEX 01 00:03:12
  TRACK 05 AUDIO
    TITLE "10:cjc041_3333"
    INDEX 01 00:03:63
  TRACK 06 AUDIO
    TITLE "0:"
    INDEX 01 00:05:03
  TRACK 07 AUDIO
    TITLE "11:cjc041_3334"
    INDEX 01 00:05:50
  TRACK 08 AUDIO
    TITLE "0:"
    INDEX 01 00:07:72
  TRACK 09 AUDIO
    TITLE "10:cjc041_3335"
    INDEX 01 00:08:48
  TRACK 10 AUDIO
    TITLE "0:"
    INDEX 01 00:09:51
  TRACK 11 AUDIO
    TITLE "11:cjc041_3336"
    INDEX 01 00:10:33
  TRACK 12 AUDIO
    TITLE "0:"
    INDEX 01 00:12:54
  TRACK 13 AUDIO
    TITLE "10:cjc041_3337"
    INDEX 01 00:13:26
  TRACK 14 AUDIO
    TITLE "0:"
    INDEX 01 00:14:39
  TRACK 15 AUDIO
    TITLE "11:cjc041_3338"
    INDEX 01 00:15:17
  TRACK 16 AUDIO
    TITLE "0:"
    INDEX 01 00:16:36
  TRACK 17 AUDIO
    TITLE "10:cjc041_3339"
    INDEX 01 00:17:12
  TRACK 18 AUDIO
    TITLE "0:"
    INDEX 01 00:18:27
  TRACK 19 AUDIO
    TITLE "11:cjc041_3340"
    INDEX 01 00:19:03
  TRACK 20 AUDIO
    TITLE "0:"
    INDEX 01 00:20:16
  TRACK 21 AUDIO
    TITLE "10:cjc041_3341"
    INDEX 01 00:20:71
  TRACK 22 AUDIO
    TITLE "0:"
    INDEX 01 00:22:15
  TRACK 23 AUDIO
    TITLE "11:cjc041_3342"
    INDEX 01 00:22:64
  TRACK 24 AUDIO
    TITLE "0:"
    INDEX 01 00:24:31
  TRACK 25 AUDIO
    TITLE "10:cjc041_3343"
    INDEX 01 00:25:07
  TRACK 26 AUDIO
    TITLE "0:"
    INDEX 01 00:26:40
  TRACK 27 AUDIO
    TITLE "11:cjc041_3344"
    INDEX 01 00:27:18
  TRACK 28 AUDIO
    TITLE "0:"
    INDEX 01 00:28:39
  TRACK 29 AUDIO
    TITLE "10:cjc041_3345"
    INDEX 01 00:29:19
  TRACK 30 AUDIO
    TITLE "0:"
    INDEX 01 00:30:57
  TRACK 31 AUDIO
    TITLE "11:cjc041_3346"
    INDEX 01 00:31:29
  TRACK 32 AUDIO
    TITLE "0:"
    INDEX 01 00:32:72
  TRACK 33 AUDIO
    TITLE "10:cjc041_3347"
    INDEX 01 00:33:50
  TRACK 34 AUDIO
    TITLE "0:"
    INDEX 01 00:34:63
  TRACK 35 AUDIO
    TITLE "11:cjc041_3348"
    INDEX 01 00:35:37
  TRACK 36 AUDIO
    TITLE "0:"
    INDEX 01 00:36:48
  TRACK 37 AUDIO
    TITLE "10:cjc041_3349"
    INDEX 01 00:37:26
  TRACK 38 AUDIO
    TITLE "0:"
    INDEX 01 00:38:33
  TRACK 39 AUDIO
    TITLE "11:cjc041_3350"
    INDEX 01 00:39:07
  TRACK 40 AUDIO
    TITLE "0:"
    INDEX 01 00:40:03
  TRACK 41 AUDIO
    TITLE "10:cjc041_3351"
    INDEX 01 00:40:52
  TRACK 42 AUDIO
    TITLE "0:"
    INDEX 01 00:41:63
  TRACK 43 AUDIO
    TITLE "11:cjc041_3352"
    INDEX 01 00:42:39
  TRACK 44 AUDIO
    TITLE "0:"
    INDEX 01 00:43:54
  TRACK 45 AUDIO
    TITLE "10:cjc041_3353"
    INDEX 01 00:44:36
  TRACK 46 AUDIO
    TITLE "0:"
    INDEX 01 00:45:51
  TRACK 47 AUDIO
    TITLE "11:cjc041_3354"
    INDEX 01 00:46:29
  TRACK 48 AUDIO
    TITLE "0:"
    INDEX 01 00:48:57
  TRACK 49 AUDIO
    TITLE "10:cjc041_3355"
    INDEX 01 00:49:39
  TRACK 50 AUDIO
    TITLE "0:"
    INDEX 01 00:50:60
  TRACK 51 AUDIO
    TITLE "11:cjc041_3356"
    INDEX 01 00:51:36
  TRACK 52 AUDIO
    TITLE "0:"
    INDEX 01 00:52:63
  TRACK 53 AUDIO
    TITLE "10:cjc041_3357"
    INDEX 01 00:53:41
  TRACK 54 AUDIO
    TITLE "0:"
    INDEX 01 00:54:60
  TRACK 55 AUDIO
    TITLE "11:cjc041_3358"
    INDEX 01 00:55:36
  TRACK 56 AUDIO
    TITLE "0:"
    INDEX 01 00:56:57
  TRACK 57 AUDIO
    TITLE "10:cjc041_3359"
    INDEX 01 00:57:37
  TRACK 58 AUDIO
    TITLE "0:"
    INDEX 01 00:58:58
  TRACK 59 AUDIO
    TITLE "11:cjc041_3360"
    INDEX 01 00:59:38
  TRACK 60 AUDIO
    TITLE "0:"
    INDEX 01 01:00:51
  TRACK 61 AUDIO
    TITLE "10:cjc041_3361"
    INDEX 01 01:01:31
  TRACK 62 AUDIO
    TITLE "0:"
    INDEX 01 01:02:46
  TRACK 63 AUDIO
    TITLE "11:cjc041_3362"
    INDEX 01 01:03:27
  TRACK 64 AUDIO
    TITLE "0:"
    INDEX 01 01:04:33
